<?xml version="1.0" encoding="utf-8"?>
<!-- Generator: Adobe Illustrator 25.2.3, SVG Export Plug-In . SVG Version: 6.00 Build 0)  -->
<svg version="1.1" id="Layer_1" xmlns="http://www.w3.org/2000/svg" xmlns:xlink="http://www.w3.org/1999/xlink" x="0px" y="0px"
	 viewBox="0 0 566.9 566.9" style="enable-background:new 0 0 566.9 566.9;" xml:space="preserve">
<style type="text/css">
	.st0{fill:#006E9E;}
</style>
<g>
	<path class="st0" d="M167,150.7l3.4,6.2c1.1,2.2,4.5,3.4,6.7,1.7l99.1-56.6c2.2-1.1,3.4-4.5,1.7-6.7l-3.4-6.2
		c-1.1-2.2-4.5-3.4-6.7-1.7l-98.6,56.6C166.4,145.1,165.9,147.9,167,150.7L167,150.7z"/>
	<path class="st0" d="M257.1,164.7l-9.5-16.8c-2.2-4.5-7.8-5.6-12.3-3.4c-4.5,2.2-5.6,7.8-3.4,12.3l9.5,16.8
		c2.2,4.5,7.8,5.6,12.3,3.4C258.3,174.7,259.4,169.1,257.1,164.7z"/>
	<path class="st0" d="M262.7,193.2c-4.5,2.2-5.6,7.8-3.4,12.3l9.5,16.8c2.2,4.5,7.8,5.6,12.3,3.4c4.5-2.2,5.6-7.8,3.4-12.3
		l-9.5-16.8C272.8,192.7,267.2,191,262.7,193.2z"/>
	<path class="st0" d="M201.1,163.5c-4.5,2.2-5.6,7.8-3.4,12.3l9.5,16.8c2.2,4.5,7.8,5.6,12.3,3.4c4.5-2.2,5.6-7.8,3.4-12.3
		l-9.5-16.8C211.2,163,205.6,161.3,201.1,163.5z"/>
	<path class="st0" d="M229.1,212.8c-4.5,2.2-5.6,7.8-3.4,12.3l9.5,16.8c2.2,4.5,7.8,5.6,12.3,3.4c4.5-2.2,5.6-7.8,3.4-12.3
		l-9.5-16.8C239.2,211.7,233.6,210,229.1,212.8z"/>
	<path class="st0" d="M268.9,124.9c-4.5,2.2-5.6,7.8-3.4,12.3l9.5,16.8c2.2,4.5,7.8,5.6,12.3,3.4c4.5-2.2,5.6-7.8,3.4-12.3
		l-9.5-16.8C279,124.3,273.4,122.7,268.9,124.9z"/>
	<path class="st0" d="M302.5,203.3c2.2,4.5,7.8,5.6,12.3,3.4c4.5-2.2,5.6-7.8,3.4-12.3l-9.5-16.8c-2.2-4.5-7.8-5.6-12.3-3.4
		c-4.5,2.2-5.6,7.8-3.4,12.3L302.5,203.3z"/>
	<path class="st0" d="M537.1,294H108.7V90.7c0-20.2,15.1-38.1,35.8-39.8c10.6-0.6,20.7,2.8,28,9.5l-1.7,1.1
		c-6.7,3.9-9.5,12.9-5.6,19.6l2.8,5c-9.5,12.9-12.3,28.6-4.5,44.8c1.1,1.7,3.4,2.8,5,1.7l91.3-52.1c1.7-1.1,2.2-3.4,1.1-5
		c-10.1-15.1-24.6-20.7-40.9-19l-2.8-5c-3.9-6.7-12.9-9.5-19.6-5.6l-1.7,1.1c-13.4-14-31.9-22.4-52.6-21.3
		C109.3,27.5,83,57.1,83,91.3V294l-53.2,0c-6.7,0-12.3,5.6-12.3,12.3v27.4c0,6.7,5.6,12.3,12.3,12.3h507.4c6.7,0,12.3-5.6,12.3-12.3
		v-27.4C549.5,299.6,543.9,294,537.1,294L537.1,294z"/>
	<path class="st0" d="M527.1,359H44.9c-2.2,0-4.5,2.2-4.5,4.5v32.5c0,42.6,25.2,79.5,61.6,95.8l-10.1,30.2c-2.8,7.3,1.7,15.7,9,18.5
		s15.7-1.7,18.5-9l10.6-30.8c5,0.6,10.6,1.1,16.2,1.1h280c5.6,0,10.6-0.6,16.2-1.1l10.6,30.8c2.8,7.3,10.6,11.8,18.5,9
		c7.3-2.8,11.8-10.6,9-18.5l-10.1-30.2c36.4-16.8,61.6-53.2,61.6-95.8v-32.5C531.5,361.2,529.3,359,527.1,359L527.1,359z"/>
</g>
</svg>
