<?xml version="1.0" encoding="utf-8"?>
<!-- Generator: Adobe Illustrator 25.2.3, SVG Export Plug-In . SVG Version: 6.00 Build 0)  -->
<svg version="1.1" id="Layer_1" xmlns="http://www.w3.org/2000/svg" xmlns:xlink="http://www.w3.org/1999/xlink" x="0px" y="0px"
	 viewBox="0 0 566.9 566.9" style="enable-background:new 0 0 566.9 566.9;" xml:space="preserve">
<style type="text/css">
	.st0{fill:#0070A1;}
</style>
<g>
	<path class="st0" d="M489.4,112.5c-8.2-8.2-19.4-12.8-31-12.8h-350c-11.6,0-22.8,4.5-31,12.8c-8.2,8.2-12.8,19.4-12.8,31v124.3
		c10.9-5.7,22.8-9.1,35-10V231c0-11.6,4.5-22.8,12.8-31c8.2-8.2,19.4-12.8,31-12.8h105c11.6,0.1,22.7,4.7,31,12.8l4,4.7l4-4.7
		c8.2-8.2,19.4-12.8,31-12.8h105c11.6,0,22.7,4.6,31,12.8c8.1,8.3,12.7,19.4,12.8,31v26.8c12.2,0.9,24.1,4.3,35,10V143.5
		C502.1,131.9,497.6,120.8,489.4,112.5L489.4,112.5z"/>
	<path class="st0" d="M528.5,432.2c2.3,0,4.5-0.9,6.2-2.6s2.6-3.9,2.6-6.2v-70c0-20.9-8.3-40.9-23.1-55.6c-3.6-3.6-7.6-6.9-11.9-9.6
		c-10.4-7.1-22.4-11.6-35-13c-2.9-0.2-5.8-0.2-8.8,0h-8.8V231c0-7-2.8-13.6-7.7-18.6s-11.6-7.7-18.6-7.7h-105
		c-7,0-13.6,2.8-18.6,7.7s-7.7,11.6-7.7,18.6v43.7h-17.5V231c0-7-2.8-13.6-7.7-18.6s-11.6-7.7-18.6-7.7h-105c-7,0-13.6,2.8-18.6,7.7
		s-7.7,11.6-7.7,18.6v43.8h-8.8c-2.9-0.2-5.8-0.2-8.8,0c-12.6,1.4-24.6,5.8-35,12.9c-4.3,2.8-8.3,6-11.9,9.6
		c-15,14.9-23.3,35.1-23.1,56.2v70c0,2.3,0.9,4.5,2.6,6.2s3.9,2.6,6.2,2.6h8.8v17.5h-8.8c-4.8,0-8.8,3.9-8.8,8.8s3.9,8.8,8.8,8.8
		h490c4.8,0,8.8-3.9,8.8-8.8s-3.9-8.8-8.8-8.8h-8.8v-17.5L528.5,432.2z M82.2,449.7H64.7v-17.5h17.5V449.7z M467.2,449.7H99.7v-17.5
		h367.5V449.7z M502.2,449.7h-17.5v-17.5h17.5V449.7z M47.2,379.7v-26.2c0.1-16.2,6.6-31.7,18-43.2c11.5-11.5,27-17.9,43.2-18h350
		c16.2,0.1,31.7,6.6,43.2,18c11.5,11.5,17.9,27,18,43.2v26.2H47.2z"/>
</g>
</svg>
