<?xml version="1.0" encoding="utf-8"?>
<!-- Generator: Adobe Illustrator 25.2.3, SVG Export Plug-In . SVG Version: 6.00 Build 0)  -->
<svg version="1.1" id="Layer_1" xmlns="http://www.w3.org/2000/svg" xmlns:xlink="http://www.w3.org/1999/xlink" x="0px" y="0px"
	 viewBox="0 0 566.9 566.9" style="enable-background:new 0 0 566.9 566.9;" xml:space="preserve">
<style type="text/css">
	.st0{fill:#006A9A;}
</style>
<g>
	<path class="st0" d="M96.4,280.1h374.1c7.8,0,14.6-6.7,14.6-14.6v-97.4c0-7.8-6.7-14.6-14.6-14.6l-374.1,0
		c-7.8,1.1-14.6,6.7-14.6,15.7v97.4C81.9,274.5,88.6,280.1,96.4,280.1L96.4,280.1z M225.2,198.3c7.8,0,14.6,4.5,17.9,12.3h80.6
		c3.4-6.7,10.1-12.3,17.9-12.3c11.2,0,19,9,19,19c0,11.2-9,19-19,19c-7.8,0-14.6-4.5-17.9-12.3h-80.6c-3.4,6.7-10.1,12.3-17.9,12.3
		c-11.2,0-19-9-19-19C206.2,206.2,215.1,198.3,225.2,198.3z"/>
	<path class="st0" d="M42.7,473.9c0,12.3,10.1,22.4,22.4,22.4h21.3v10.1c0,4.5,4.5,9,9,9h52.6c4.5,0,9-4.5,9-9v-10.1h254.2v10.1
		c0,4.5,4.5,9,9,9h52.6c4.5,0,9-4.5,9-9l0-10.1H503c12.3,0,22.4-10.1,22.4-22.4l0-381.9H43.8v381.9L42.7,473.9z M70.7,154.7
		c0-5.6,4.5-11.2,11.2-11.2h403.2c6.7,0,11.2,5.6,11.2,11.2v126.6c0,6.7-4.5,11.2-11.2,11.2l-403.2,0c-6.7,0-11.2-4.5-11.2-11.2
		L70.7,154.7z M70.7,330.5c0-5.6,4.5-11.2,11.2-11.2h403.2c6.7,0,11.2,5.6,11.2,11.2v126.6c0,5.6-4.5,11.2-11.2,11.2l-403.2,0
		c-6.7,0-11.2-5.6-11.2-11.2L70.7,330.5z"/>
	<path class="st0" d="M96.4,457.1h374.1c7.8,0,14.6-6.7,14.6-14.6v-97.4c0-7.8-6.7-14.6-14.6-14.6l-374.1,0
		c-7.8,0-14.6,6.7-14.6,14.6v97.4C81.9,450.3,88.6,457.1,96.4,457.1L96.4,457.1z M225.2,374.2c7.8,0,14.6,4.5,17.9,12.3h80.6
		c3.4-6.7,10.1-12.3,17.9-12.3c11.2,0,19,9,19,19c0,11.2-9,19-19,19c-7.8,0-14.6-4.5-17.9-12.3h-80.6c-3.4,6.7-10.1,12.3-17.9,12.3
		c-11.2,0-19-9-19-19C206.2,383.1,215.1,374.2,225.2,374.2z"/>
	<path class="st0" d="M546.7,51.6H20.3c-3.4,0-5.6,2.2-5.6,5.6v17.9c0,3.4,2.2,5.6,5.6,5.6h526.4c3.4,0,5.6-2.2,5.6-5.6V57.2
		C552.3,53.9,550,51.6,546.7,51.6z"/>
</g>
</svg>
