<?xml version="1.0" encoding="utf-8"?>
<!-- Generator: Adobe Illustrator 25.2.3, SVG Export Plug-In . SVG Version: 6.00 Build 0)  -->
<svg version="1.1" id="Layer_1" xmlns="http://www.w3.org/2000/svg" xmlns:xlink="http://www.w3.org/1999/xlink" x="0px" y="0px"
	 viewBox="0 0 566.9 566.9" style="enable-background:new 0 0 566.9 566.9;" xml:space="preserve">
<style type="text/css">
	.st0{fill:#006A9A;}
</style>
<symbol  id="a" viewBox="-6.4 -10.2 12.9 20.5">
	<path d="M1.2-10.2v4.5h5.3v3.6H1.2v6.8c0,0.7,0.1,1.2,0.4,1.5c0.3,0.3,0.9,0.4,1.8,0.4H6v3.6H1.6c-2,0-3.5-0.4-4.3-1.2
		c-0.8-0.8-1.2-2.3-1.2-4.3v-6.8h-2.5v-3.6h2.5v-4.5L1.2-10.2z"/>
</symbol>
<symbol  id="e" viewBox="-8.1 -8.4 16.1 16.7">
	<path d="M0.3,0.8c-1.1,0-1.9,0.2-2.4,0.5c-0.5,0.4-0.8,0.9-0.8,1.6c0,0.6,0.2,1.2,0.6,1.5C-1.9,4.8-1.2,5-0.5,5c1,0,1.8-0.3,2.4-1
		s1-1.5,1-2.6V0.8L0.3,0.8z M8.1-1.1V8H2.9V5.6c-0.7,1-1.5,1.7-2.3,2.1c-0.9,0.4-1.9,0.7-3.1,0.7c-1.7,0-3-0.5-4-1.4
		c-1-1-1.5-2.2-1.5-3.8c0-1.9,0.6-3.2,1.9-4.1c1.3-0.9,3.3-1.3,6.1-1.3h3v-0.4c0-0.8-0.3-1.4-1-1.8C1.3-4.8,0.3-5-1-5
		c-1.1,0-2.1,0.1-3,0.3c-0.9,0.2-1.8,0.5-2.6,1v-3.9C-5.6-7.8-4.5-8-3.4-8.2c1.1-0.1,2.2-0.2,3.3-0.2c2.9,0,4.9,0.6,6.2,1.7
		C7.4-5.5,8.1-3.7,8.1-1.1L8.1-1.1z"/>
</symbol>
<g>
	<path class="st0" d="M286.4,489.2c51,0.1,101.9,1.6,152.9,4.7c1.5-25.2,3.1-50.3,4.6-75.5c-52.4-3.2-104.9-4.8-157.4-4.9
		C286.4,438.7,286.4,464,286.4,489.2L286.4,489.2z M295.5,443.3c3,0,5.9,0,8.9,0.1c0,5.4-0.1,10.8-0.1,16.2c-2.9,0-5.9,0-8.8-0.1
		C295.4,454.1,295.4,448.7,295.5,443.3L295.5,443.3z"/>
	<path class="st0" d="M280.1,51.5c-59.6,0.1-119.3,1.9-178.9,5.5c7.2,118.5,14.4,237.1,21.6,355.6c52.5-3.2,105.1-4.8,157.7-4.9
		C280.3,289,280.2,170.3,280.1,51.5L280.1,51.5z M250.3,242.2c-7.5,0.1-13.8-5.3-13.9-12.2c-0.1-6.8,6-12.5,13.6-12.6
		c7.6-0.1,13.9,5.4,13.9,12.2C263.9,236.5,257.8,242.1,250.3,242.2L250.3,242.2z"/>
	<path class="st0" d="M123.1,418.4c1.5,25.2,3.1,50.3,4.6,75.5c50.9-3.1,101.9-4.7,152.9-4.7c0-25.2-0.1-50.4-0.1-75.6
		C228,413.6,175.5,415.2,123.1,418.4L123.1,418.4z M262.7,459.5c0-5.4-0.1-10.8-0.1-16.2c3,0,5.9,0,8.9-0.1c0,5.4,0.1,10.8,0.1,16.2
		C268.6,459.5,265.7,459.5,262.7,459.5L262.7,459.5z"/>
	<path class="st0" d="M286.9,51.5c-0.1,118.7-0.3,237.5-0.4,356.2c52.6,0.1,105.2,1.7,157.7,4.9c7.2-118.5,14.4-237.1,21.6-355.6
		C406.2,53.4,346.5,51.6,286.9,51.5L286.9,51.5z M316.7,242.2c-7.5-0.1-13.6-5.7-13.6-12.5c0-6.8,6.3-12.3,13.9-12.2
		c7.6,0.1,13.7,5.7,13.6,12.6C330.5,236.9,324.2,242.3,316.7,242.2L316.7,242.2z"/>
	<path class="st0" d="M250,223.2c-4.1,0.1-7.3,3.1-7.3,6.7c0.1,3.6,3.4,6.6,7.4,6.5c4-0.1,7.3-3,7.3-6.7
		C257.4,226.1,254.1,223.2,250,223.2L250,223.2z"/>
	<path class="st0" d="M316.9,223.2c4.1,0,7.3,3,7.3,6.7c0,3.6-3.4,6.6-7.4,6.5s-7.3-3-7.3-6.7C309.5,226.1,312.8,223.2,316.9,223.2"
		/>
	<path class="st0" d="M391.1,514.7c5.1,0.2,10.1,0.4,15.2,0.7c0.2-5.2,0.5-10.4,0.8-15.5c-5.1-0.2-10.2-0.5-15.3-0.7
		C391.6,504.3,391.4,509.5,391.1,514.7L391.1,514.7z"/>
	<path class="st0" d="M159.8,499.9c0.2,5.2,0.5,10.4,0.7,15.5c5.1-0.2,10.1-0.5,15.2-0.7c-0.2-5.2-0.4-10.4-0.7-15.5
		C170,499.4,164.9,499.6,159.8,499.9L159.8,499.9z"/>
</g>
<g>
	<defs>
		<rect id="SVGID_1_" x="369.3" y="581" width="700" height="700"/>
	</defs>
	<clipPath id="SVGID_2_">
		<use xlink:href="#SVGID_1_"  style="overflow:visible;"/>
	</clipPath>
	<g style="clip-path:url(#SVGID_2_);">
		
			<use xlink:href="#e"  width="16.1" height="16.7" x="-8.1" y="-8.4" transform="matrix(1 0 0 1 378.6092 572.9958)" style="overflow:visible;"/>
	</g>
</g>
<g>
	<defs>
		<rect id="SVGID_3_" x="389" y="581" width="700" height="700"/>
	</defs>
	<clipPath id="SVGID_4_">
		<use xlink:href="#SVGID_3_"  style="overflow:visible;"/>
	</clipPath>
	<g style="clip-path:url(#SVGID_4_);">
		
			<use xlink:href="#a"  width="12.9" height="20.5" x="-6.4" y="-10.2" transform="matrix(1 0 0 1 395.8044 570.7227)" style="overflow:visible;"/>
	</g>
</g>
</svg>
