<?xml version="1.0" encoding="utf-8"?>
<!-- Generator: Adobe Illustrator 25.2.3, SVG Export Plug-In . SVG Version: 6.00 Build 0)  -->
<svg version="1.1" id="Layer_1" xmlns="http://www.w3.org/2000/svg" xmlns:xlink="http://www.w3.org/1999/xlink" x="0px" y="0px"
	 viewBox="0 0 566.9 566.9" style="enable-background:new 0 0 566.9 566.9;" xml:space="preserve">
<style type="text/css">
	.st0{fill:#006C9C;}
</style>
<g>
	<path class="st0" d="M296.9,203.6c0,4.5-3.6,8.1-8.1,8.1s-8.1-3.6-8.1-8.1s3.6-8.1,8.1-8.1S296.9,199.1,296.9,203.6"/>
	<path class="st0" d="M483.4,94.1H83.6l-27.2,42.3L33,172.6v9.3h11.7v43.3h2.2c-1.7,0-3.1,1.4-3.1,3.1v7.2c0,0.8,0.3,1.6,0.9,2.1
		v6.7c0,0,5.7,52.8,25.5,82.1c19.7,29.3,19.7,91.7,8.3,110.8c-11.5,19.1,27.4,24.8,29.9,35.7h20c0,0-7.9-105-19.3-136.9
		c-11.5-31.8-14.6-59.9-5.7-68.1c4.3-4,23.4-5.5,44.6-8.6c18.4,74.8,0.5,115.2-1.3,138.5c-1,13.1,5.7,6.4,11.5,15.3
		c5.7,8.9,4.1,12.3,4.1,12.3h12.3c0,0-8.3-35.9-2.2-73c9-54.8,7.1-87.1,0.4-97.7c14.3-3.4,27.4-8.3,35.5-16h152
		c8.1,7.7,21.3,12.6,35.5,16c-6.7,10.7-8.6,43,0.4,97.7c6.1,37.1-2.2,73-2.2,73h12.3c0,0-1.7-3.4,4.1-12.3
		c5.7-8.9,12.5-2.2,11.5-15.3c-1.8-23.3-19.7-63.7-1.3-138.5c21.3,3.1,40.3,4.6,44.6,8.6c8.9,8.3,5.7,36.3-5.7,68.1
		C447.9,367.8,440,472.9,440,472.9h20c2.6-10.8,41.4-16.6,29.9-35.7c-11.5-19.1-11.5-81.5,8.3-110.8c19.7-29.3,25.5-82.1,25.5-82.1
		v-5.7h7.1c1.7,0,3.1-1.4,3.1-3.1v-7.2c0-1.7-1.4-3.1-3.1-3.1h-7.1v-43.3h10.2v-9.3l-23.3-36.3L483.4,94.1z M132.6,203.6
		c0,4.5-3.6,8.1-8.1,8.1c-4.5,0-8.1-3.6-8.1-8.1c0-4.5,3.6-8.1,8.1-8.1C129,195.5,132.6,199.1,132.6,203.6z M445.1,203.6
		c0-4.5,3.6-8.1,8.1-8.1c4.5,0,8.1,3.6,8.1,8.1c0,4.5-3.6,8.1-8.1,8.1C448.8,211.6,445.1,208,445.1,203.6z M364,225.2H204.4v-43.3
		H364V225.2z"/>
</g>
</svg>
